<?xml version="1.0" encoding="utf-8"?>
<!-- Generator: Adobe Illustrator 23.0.3, SVG Export Plug-In . SVG Version: 6.00 Build 0)  -->
<svg version="1.1" id="Layer_1" xmlns="http://www.w3.org/2000/svg" xmlns:xlink="http://www.w3.org/1999/xlink" x="0px" y="0px"
	 viewBox="0 0 320 320" style="enable-background:new 0 0 320 320;" xml:space="preserve">
<style type="text/css">
	.st0{fill:none;stroke:#000000;stroke-width:5.7905;stroke-miterlimit:10;}
	.st1{stroke:#000000;stroke-width:1.9719;stroke-miterlimit:10;stroke-dasharray:800;stroke-dashoffset:0;-webkit-animation: dash 2s linear fowards;-o-animation:dash 2s linear forwards;-moz-animation:dash 2s linear forwards;animation: dash 2s linear forwards;}

	.st2{fill:none;stroke:#D22026;stroke-width:4.9018;}
    @-webkit-keyframes dash{
        form{
            stroke-dashoffset: 800;
        }
        to {
            stroke-dashoffset: 0;
        }
    }


</style>
<g>
	<line class="st0" x1="53.1" y1="38" x2="53.1" y2="185.7"/>
	<line class="st0" x1="272.8" y1="38" x2="272.8" y2="185.7"/>
	<line class="st0" x1="53.1" y1="184.3" x2="272.8" y2="184.3"/>
	<line class="st0" x1="272.8" y1="41" x2="53.1" y2="41"/>
	<g>
		<path class="st1" d="M75.4,114.3l39.8-17.2v5.6l-34.1,13.9c5.7,2.3,11.4,4.6,17.1,6.9s11.3,4.6,17,6.9v5.7L75.4,119V114.3z"/>
		<path class="st1" d="M184.9,142.3h-5.9l20.1-63.5h5.6L184.9,142.3z"/>
		<path class="st1" d="M210.1,136.2v-5.6l34.2-13.7l-34.2-14.2v-5.6l39.8,17.2v4.7L210.1,136.2z"/>
	</g>
	<line class="st0" x1="53.1" y1="183.6" x2="37.3" y2="298"/>
	<line class="st0" x1="272.8" y1="184.9" x2="290.4" y2="298.3"/>
	<line class="st0" x1="291.7" y1="295.9" x2="36.6" y2="295.7"/>
	<line class="st0" x1="114.1" y1="244.4" x2="211.7" y2="244.4"/>
	<line class="st0" x1="115.1" y1="242.9" x2="108.3" y2="280.3"/>
	<line class="st0" x1="210.8" y1="242.9" x2="218.6" y2="281.4"/>
	<line class="st0" x1="219.6" y1="278.8" x2="107" y2="278.7"/>
</g>
<g id="Artboard">
	<path id="Path-3_1_" class="st2" d="M175.1,109.2v14.1c0,1.2-0.9,2.1-2.1,2.1h-12c-1.2,0-2.1,0.9-2.1,2.1V139
		c0,1.2-0.9,2.1-2.1,2.1h-28.6c-1.2,0-2.1-0.9-2.1-2.1v-11.6c0-1.1,0.9-2.1,2.1-2.1l11.5-0.2c1.1,0,2.1-1,2.1-2.1v-11.8
		c0-1.2,0.9-2.1,2.1-2.1h12.4c1.2,0,2.1-0.9,2.1-2.1V94.3c0-1.2,0.9-2.1,2.1-2.1c5.5,0,11.1-0.1,16.6-0.1"/>
</g>
<g>
</g>
<g>
</g>
<g>
</g>
<g>
</g>
<g>
</g>
<g>
</g>
</svg>
