<svg xmlns="http://www.w3.org/2000/svg" viewBox="0 0 20.95 21.77"><title>3SD24b24</title><text x="-1.82" y="-1.05" style="isolation:isolate"/><path d="M21.8,8.92v5.73a.81.81,0,0,1-.81.83H16.34a.81.81,0,0,0-.81.84V21a.8.8,0,0,1-.8.84H3.6A.8.8,0,0,1,2.8,21V16.29a.82.82,0,0,1,.8-.83l4.47-.09a.84.84,0,0,0,.8-.84V9.76a.81.81,0,0,1,.8-.84h4.82a.8.8,0,0,0,.8-.83V2.87A.81.81,0,0,1,16.1,2h5.48" transform="translate(-1.82 -1.05)" style="fill:none;stroke:#d22026;stroke-width:1.9492572666673817px"/><line x1="17.49" y1="0.97" x2="18.32" y2="0.97" style="fill:none;stroke:#d22026;stroke-width:1.9492572666673817px"/><line x1="17.49" y1="0.97" x2="18.73" y2="0.97" style="fill:none;stroke:#d22026;stroke-width:1.9492572666673817px"/></svg>