<svg xmlns="http://www.w3.org/2000/svg" viewBox="0 0 612.88 571.76"><title>3SD_Logo</title><text transform="translate(289.18 559.92)" style="isolation:isolate;font-size:56.14215087890625px;fill:#010101;font-family:HiraginoSansGB-W3-GBpc-EUC-H, Hiragino Sans GB;letter-spacing:-0.02299547852708046em"> </text><text x="-637.84" y="-250.11" style="isolation:isolate"/><text transform="translate(595.47 555)" style="isolation:isolate;font-size:56.14215087890625px;fill:#010101;font-family:HiraginoSansGB-W3-GBpc-EUC-H, Hiragino Sans GB;letter-spacing:-0.02299547852708046em"> </text><text x="-637.84" y="-250.11" style="isolation:isolate"/><path d="M860.06,334.35v61.09a8.78,8.78,0,0,1-8.94,8.94H799.26a8.79,8.79,0,0,0-8.94,8.94v50.07a8.78,8.78,0,0,1-8.94,8.94h-124a8.78,8.78,0,0,1-8.94-8.94V413a9,9,0,0,1,8.94-8.94l49.77-.89a9.16,9.16,0,0,0,8.94-8.94v-51a8.78,8.78,0,0,1,8.94-8.94H778.7a8.78,8.78,0,0,0,8.94-8.94V269.68a8.78,8.78,0,0,1,8.94-8.94h61.09" transform="translate(-637.84 -250.11)" style="fill:none;stroke:#d22026;stroke-width:21.254308166895967px"/><line x1="219.83" y1="10.63" x2="229.01" y2="10.63" style="fill:none;stroke:#d22026;stroke-width:21.254308166895967px"/><line x1="219.83" y1="10.63" x2="233.57" y2="10.63" style="fill:none;stroke:#d22026;stroke-width:21.254308166895967px"/></svg>